<svg width="484" height="486" viewBox="0 0 484 486" fill="none" xmlns="http://www.w3.org/2000/svg">
<path d="M202.345 1.37077C200.974 2.11842 197.609 4.73522 194.868 7.35202C190.382 11.5887 184.152 14.3301 174.058 16.5731C172.189 17.0715 167.329 16.4485 163.217 15.327C156.239 13.3333 155.616 13.3333 151.13 15.5762C148.389 16.9469 145.149 19.813 143.778 22.1805C139.791 29.034 134.308 33.7692 123.093 39.9997C113.872 45.2333 111.754 45.9809 105.398 45.9809C92.8129 45.9809 85.9594 51.3391 83.9656 62.8032C83.218 66.6661 81.3488 69.5321 75.243 75.5133C70.7571 79.8747 65.7727 83.613 63.7789 83.9868C57.1746 85.4821 50.9442 88.7219 48.8258 91.9618C47.5797 93.8309 46.3336 98.8153 45.9598 103.924C44.9629 115.638 39.1063 125.232 30.259 129.594C19.9164 134.703 16.552 142.927 19.9164 154.391C22.4086 162.491 13.9352 188.409 7.08166 193.145C-0.768732 198.877 -2.38865 210.839 3.71721 219.063C6.58322 222.926 6.70783 224.422 7.82931 250.59C8.9508 277.256 8.9508 278.128 6.334 283.486C1.10041 294.078 3.5926 304.421 12.5645 309.904C15.8043 311.897 18.0473 315.137 21.661 322.863C24.2778 328.595 30.0098 340.931 34.3711 350.277C41.7231 365.853 42.3461 367.722 41.5985 372.831C40.1031 382.925 46.3336 391.149 56.9254 393.143C64.6512 394.638 83.3426 414.202 83.3426 420.681C83.3426 425.541 87.2055 432.395 91.3176 434.887C93.8098 436.382 97.5481 437.254 102.034 437.254C113.623 437.379 135.429 449.965 140.788 459.809C142.407 462.799 145.772 466.538 148.139 468.157C152.625 471.273 152.999 471.273 169.572 468.781C176.924 467.784 187.516 471.522 193.373 477.379C198.731 482.612 204.837 485.852 209.073 485.852C210.32 485.852 214.681 484.107 218.544 482.114C225.273 478.625 226.394 478.375 240.226 478.375C253.808 478.375 255.179 478.625 262.157 482.114C273.496 487.721 277.982 486.974 287.827 477.752C294.431 471.522 305.147 467.659 311.752 468.905C313.995 469.404 319.104 470.027 323.216 470.4C329.695 471.023 331.191 470.774 334.181 468.407C336.05 466.911 338.667 463.547 340.038 460.93C343.153 454.824 349.508 449.715 361.471 443.485C369.321 439.373 372.187 438.5 378.293 438.5C390.006 438.5 395.863 433.516 398.106 421.678C399.352 414.575 412.311 401.741 419.289 400.37C430.878 398.376 435.987 392.395 435.987 381.18C435.987 375.573 436.735 372.956 440.473 366.85C446.33 357.006 449.196 354.14 455.426 351.274C464.523 347.286 467.762 339.561 465.021 328.844C463.526 322.863 463.526 320.869 465.27 312.894C468.261 299.686 471.875 291.586 477.357 285.729C485.208 277.505 485.831 269.156 479.476 260.06C476.734 256.322 476.485 254.452 476.111 239.624C475.613 223.425 475.613 223.175 479.6 215.076C483.588 206.852 483.712 204.733 480.597 198.378C479.351 195.886 478.604 195.761 469.756 196.26C454.18 197.257 452.186 197.755 450.816 201.369C449.196 205.73 451.314 212.708 455.925 217.693C460.784 223.051 461.532 226.041 461.532 240.995C461.532 251.586 461.158 254.079 459.04 257.069C453.059 265.543 452.186 267.412 452.186 271.898C452.186 274.515 453.059 278.377 454.18 280.496C455.8 283.611 456.049 286.477 455.551 292.957C454.554 304.545 449.694 315.013 442.467 320.994C435.364 326.726 432.997 332.333 433.993 340.557C434.616 346.04 434.243 347.785 431.127 353.143C426.392 361.492 422.031 365.479 416.299 367.224C408.947 369.467 404.835 374.576 403.713 383.174C402.716 390.027 402.218 390.775 394.368 398.252C386.766 405.479 385.645 406.102 380.536 406.102C373.558 406.102 366.954 411.46 364.711 418.812C362.966 424.669 357.608 429.155 344.524 435.51C336.923 439.248 335.178 439.622 328.823 438.874C320.474 438.002 315.739 439.996 310.505 446.6C306.767 451.335 297.297 455.697 289.945 456.07C287.702 456.195 283.091 455.323 279.727 454.201C272.25 451.584 267.764 452.457 262.032 457.441C253.559 464.918 228.263 464.793 219.79 457.316C214.182 452.457 208.201 451.335 201.348 453.952C194.743 456.444 191.379 456.444 183.03 453.952C178.046 452.457 174.93 450.463 170.694 445.852C163.716 438.5 160.102 437.13 150.881 438.002C144.401 438.75 143.03 438.376 135.554 434.388C124.09 428.407 118.482 423.672 117.486 419.186C115.741 410.962 108.638 404.856 100.539 404.856C96.8004 404.856 94.8067 403.734 88.8254 398.252C78.9813 389.28 74.6199 383.049 74.6199 377.816C74.6199 370.464 71.1309 365.23 63.9035 361.118C54.6824 355.884 50.3211 350.402 42.7199 334.452C35.1188 318.377 32.3774 308.034 34.4957 303.299C37.8602 295.823 35.7418 286.352 29.2621 280.371C25.0254 276.384 23.7793 272.022 22.4086 257.568C20.4149 236.509 22.0348 226.54 29.1375 216.82C32.8758 211.836 33.2496 205.107 30.1344 198.627C28.3899 195.014 28.2653 193.145 29.3867 187.163C31.8789 173.83 35.6172 165.98 41.5985 161.494C49.5735 155.637 51.4426 151.65 51.5672 141.182C51.5672 133.581 52.0656 131.588 55.3055 126.354C58.2961 121.37 60.2899 119.75 65.025 118.13C68.3895 116.884 71.8785 115.264 73 114.267C75.866 111.899 79.6043 103.301 79.6043 98.6907C79.6043 95.5755 81.0996 93.3325 87.2055 87.2266C94.059 80.4977 95.5543 79.6255 99.791 79.6255C108.264 79.6255 115.866 73.7688 117.61 65.9184C118.732 61.0587 126.831 53.9559 136.551 49.47C143.529 46.2301 145.647 45.7317 151.878 46.3548C160.725 47.1024 167.703 44.361 171.94 38.3798C175.554 33.0216 176.052 32.6477 183.902 30.4048C192.002 28.0372 195.242 28.0372 201.223 30.5294C207.952 33.2708 214.556 32.1493 220.911 27.0403L226.02 22.9282H256.3L261.534 27.1649C267.764 32.1493 274.12 33.2708 280.724 30.5294C283.341 29.4079 286.83 28.5356 288.325 28.5356C293.185 28.5356 307.515 33.52 309.135 35.763C310.007 36.8844 311.378 38.0059 312.001 38.1305C313.371 38.3798 313.621 25.4204 312.25 24.0497C311.752 23.5512 311.378 22.0559 311.378 20.8098C311.378 19.5637 310.63 18.3176 309.882 17.9438C309.01 17.6946 305.023 16.5731 301.16 15.4516C296.175 14.0809 292.063 11.838 287.702 7.97506C284.338 4.98444 279.353 1.86921 276.612 0.996939C272.126 -0.373764 271.129 -0.124545 263.528 3.61374C255.304 7.60124 255.179 7.60124 239.354 7.1028C224.899 6.60436 223.03 6.35514 217.921 3.23991C212.064 -0.249154 206.457 -0.99681 202.345 1.37077ZM214.182 11.0903C215.553 12.461 216.675 14.5794 216.675 15.8255C216.675 18.8161 212.189 23.5512 209.447 23.5512C205.709 23.5512 201.721 19.9376 201.721 16.4485C201.721 9.34577 209.323 6.23053 214.182 11.0903ZM277.982 10.7165C282.593 14.8286 279.353 23.5512 273.123 23.5512C269.634 23.5512 265.272 19.4391 265.272 16.0747C265.272 12.8348 269.509 8.59811 272.998 8.59811C274.493 8.59811 276.736 9.47038 277.982 10.7165ZM162.345 26.2926C165.086 30.1555 164.837 31.9001 161.348 35.3891C158.108 38.629 155.616 38.5044 151.629 35.0153C148.887 32.6477 148.763 28.1618 151.379 25.545C154.245 22.5544 160.102 23.0528 162.345 26.2926ZM106.769 57.445C108.888 59.3141 108.638 64.6723 106.146 67.4137C102.034 72.0243 94.3082 69.0337 94.3082 62.8032C94.3082 56.1989 101.286 53.2083 106.769 57.445ZM68.0156 97.8184C69.8848 100.809 69.8848 101.432 68.2649 104.423C65.6481 109.033 59.293 109.532 56.5516 105.42C53.4363 100.56 56.5516 94.5786 62.2836 94.5786C64.7758 94.5786 66.5203 95.5755 68.0156 97.8184ZM39.7293 140.684C41.1 142.055 42.2215 144.298 42.2215 145.668C42.2215 148.908 37.9848 153.145 34.7449 153.145C31.7543 153.145 27.2684 148.908 27.2684 146.291C27.2684 143.799 32.8758 138.192 35.368 138.192C36.3649 138.192 38.3586 139.313 39.7293 140.684ZM472.498 201.867C474.616 204.858 474.741 205.606 473.245 208.721C469.258 216.82 457.918 212.459 459.414 203.487C459.787 200.497 464.024 198.004 467.638 198.378C468.884 198.503 471.127 200.123 472.498 201.867ZM19.1688 201.244C20.2903 201.743 21.7856 203.487 22.4086 205.232C25.0254 212.085 16.4274 217.194 10.8199 212.085C5.08791 206.852 11.5676 198.378 19.1688 201.244ZM472.622 266.664C476.859 270.029 476.859 274.39 472.498 277.63C464.896 283.736 456.921 274.141 463.65 266.913C466.89 263.424 468.386 263.3 472.622 266.664ZM25.6485 290.963C27.5176 293.954 27.5176 294.577 25.8977 297.567C24.527 300.059 23.1563 300.807 19.7918 300.807C16.4274 300.807 15.0567 300.059 13.686 297.567C12.066 294.577 12.066 293.954 13.9352 290.963C15.4305 288.72 17.175 287.723 19.7918 287.723C22.4086 287.723 24.1531 288.72 25.6485 290.963ZM454.928 329.716C458.043 332.458 457.918 339.561 454.803 341.305C453.432 341.928 451.189 342.551 449.819 342.551C443.713 342.551 441.096 333.206 446.205 329.592C449.819 327.1 452.062 327.1 454.928 329.716ZM61.9098 370.713C65.8973 373.454 65.2742 379.809 60.7883 382.302C57.7977 383.922 57.1746 383.922 54.184 382.052C49.9473 379.311 49.6981 373.454 53.6856 370.713C57.1746 368.221 58.4207 368.221 61.9098 370.713ZM425.021 378.314C429.632 382.426 426.641 390.152 420.411 390.152C415.925 390.152 411.938 385.666 413.059 381.928C414.679 376.32 420.785 374.451 425.021 378.314ZM106.645 418.065C108.514 421.055 108.514 421.678 106.894 424.669C105.523 427.161 104.152 427.909 100.788 427.909C97.4235 427.909 96.0528 427.161 94.6821 424.669C93.0621 421.678 93.0621 421.055 94.9313 418.065C96.4266 415.822 98.1711 414.825 100.788 414.825C103.405 414.825 105.149 415.822 106.645 418.065ZM384.648 416.818C389.882 420.432 387.14 429.778 380.91 429.778C374.181 429.778 371.066 420.557 376.424 416.818C377.919 415.697 379.788 414.825 380.536 414.825C381.284 414.825 383.153 415.697 384.648 416.818ZM160.85 449.341C163.466 451.709 163.716 455.821 161.473 458.936C158.98 462.301 151.878 461.179 149.51 457.067C147.89 454.077 147.89 453.454 149.759 450.463C152.252 446.725 157.361 446.102 160.85 449.341ZM330.069 449.715C331.44 451.086 332.561 453.329 332.561 454.7C332.561 457.94 328.325 462.176 325.085 462.176C320.973 462.176 317.234 457.566 318.231 453.703C319.727 447.223 325.708 445.354 330.069 449.715ZM213.061 463.422C214.681 464.295 215.429 466.039 215.429 468.781C215.429 473.89 213.559 475.883 208.575 475.883C203.84 475.883 201.721 473.89 201.721 469.528C201.721 463.422 207.329 460.432 213.061 463.422ZM277.982 464.295C281.97 467.784 280.848 473.017 275.366 475.883C272.873 477.129 272.001 477.005 269.135 474.886C265.148 471.896 264.525 469.154 267.017 465.291C269.384 461.678 274.493 461.179 277.982 464.295Z" fill="black"/>
<path d="M96.1773 110.155C97.9219 122.989 108.015 136.696 120.352 143.052C123.093 144.422 133.685 147.787 143.903 150.528C203.715 166.478 241.223 178.067 233.248 178.067C231.379 178.067 175.554 165.606 139.043 157.008C121.348 152.771 106.645 149.407 106.271 149.407C106.021 149.407 106.769 151.525 108.14 154.017C115.492 168.472 128.825 176.571 150.632 179.936C172.438 183.425 221.908 193.02 224.027 194.266C225.771 195.263 225.771 195.387 223.902 195.512C221.908 195.512 199.728 193.02 148.513 186.914C138.046 185.793 129.448 184.92 129.448 185.294C129.448 187.039 135.429 193.518 140.538 197.257C150.009 204.235 154.993 205.481 186.768 208.098C227.64 211.587 229.385 212.708 193.996 212.833C177.796 212.957 164.214 213.456 163.84 214.079C162.843 215.699 175.18 223.549 182.532 226.041C186.021 227.163 194.619 228.409 201.597 228.907L214.432 229.78L177.921 262.801C136.177 300.433 130.694 305.542 130.694 307.411C130.694 309.903 134.682 312.645 138.42 312.645C141.784 312.645 198.108 316.508 220.039 318.252L229.011 319L254.93 288.72C286.83 251.586 306.643 229.78 308.761 229.78C310.381 229.78 334.306 283.237 342.156 304.545C344.025 309.654 345.022 310.9 347.888 311.15C349.882 311.399 351.502 310.9 351.876 309.779C352.25 308.907 350.38 301.928 347.639 294.452C324.836 231.773 311.378 194.141 311.378 193.02C311.378 192.148 317.11 191.774 328.325 192.023C345.022 192.397 345.396 192.521 347.764 195.637C351.128 199.998 349.134 204.733 343.278 206.727C339.539 207.973 338.792 208.721 338.792 211.836C338.792 215.076 339.166 215.45 342.655 215.45C351.627 215.45 358.729 208.471 358.729 199.5C358.729 195.014 354.368 188.285 348.885 184.671C344.898 181.93 343.527 181.805 319.976 181.805H295.303L299.041 192.646C301.035 198.627 302.655 203.612 302.655 203.861C302.655 204.11 296.923 204.11 289.945 203.986L277.235 203.612L276.238 198.378C274.369 187.412 267.266 176.945 256.55 169.469C243.216 160.123 243.466 160.248 157.485 133.207C124.214 122.74 111.38 117.133 100.912 108.535L95.4297 104.049L96.1773 110.155ZM291.565 216.696C295.552 216.696 298.917 217.194 298.917 217.817C298.917 218.316 294.057 224.421 288.076 231.15C282.219 237.879 265.023 257.692 249.945 275.013L222.656 306.664L216.799 305.916C213.684 305.542 198.731 304.545 183.653 303.798C168.575 302.925 155.865 301.928 155.367 301.555C154.495 300.807 183.03 273.642 206.581 252.957C230.506 231.898 222.78 243.736 192.874 274.141C181.286 285.854 172.812 295.075 174.058 294.701C175.18 294.452 180.662 292.957 186.145 291.461C204.338 286.477 223.528 277.879 236.986 268.782C254.431 256.944 270.63 237.505 274.743 223.425C276.612 217.069 278.605 215.076 282.468 216.197C283.465 216.446 287.453 216.696 291.565 216.696Z" fill="black"/>
<path d="M116.738 236.01C90.6943 242.614 68.8877 264.546 62.7818 290.34C58.9189 306.913 61.6603 327.349 69.7599 342.551C88.9498 378.563 136.052 391.398 171.69 370.339C187.267 361.118 201.472 342.551 203.84 328.47L204.587 323.86H198.731C194.245 323.86 192.749 324.358 192.251 325.978C185.148 347.286 165.086 363.984 142.407 367.473C124.09 370.339 103.903 363.61 90.9435 350.277C57.922 316.383 73.872 260.06 119.853 248.346C134.432 244.484 154.12 247.848 166.208 256.072C171.192 259.437 172.812 259.063 177.796 253.705L180.662 250.714L173.435 245.854C161.846 238.253 152.127 235.262 136.924 234.639C128.202 234.39 121.473 234.764 116.738 236.01Z" fill="black"/>
<path d="M336.549 235.138C335.178 236.135 335.178 237.256 336.424 241.493L337.92 246.602H348.013C366.081 246.727 377.919 251.212 390.629 263.05C421.408 291.835 413.931 342.8 375.926 361.741C358.605 370.464 339.789 370.464 321.596 361.741C305.895 354.14 292.936 338.065 289.073 321.368C284.338 300.807 291.316 277.63 306.518 263.549L313.621 256.945L311.627 251.088C310.506 247.973 309.01 245.356 308.512 245.356C306.518 245.356 290.194 261.929 286.456 267.661C276.487 283.237 272.874 304.421 276.986 322.987C282.842 348.906 300.288 368.221 325.708 376.943C338.169 381.18 356.113 381.679 368.075 378.189C392.872 370.837 412.935 350.651 419.913 325.729C422.779 315.511 422.156 296.196 418.667 285.48C415.551 275.885 408.449 263.798 401.844 256.695C395.863 250.216 380.411 240.621 371.315 237.755C362.343 234.889 339.415 233.144 336.549 235.138Z" fill="black"/>
</svg>
